<svg width="15" height="11" viewBox="0 0 15 11" fill="none" xmlns="http://www.w3.org/2000/svg">
<path d="M14.3162 2.0715C14.3162 2.3095 14.23 2.51183 14.0576 2.6785L6.11431 10.357C5.9419 10.5237 5.73259 10.607 5.48638 10.607C5.24017 10.607 5.03086 10.5237 4.85845 10.357L0.258621 5.9105C0.0862069 5.74383 0 5.5415 0 5.3035C0 5.0655 0.0862069 4.86317 0.258621 4.6965L1.515 3.482C1.68741 3.31533 1.89672 3.232 2.14293 3.232C2.38914 3.232 2.59845 3.31533 2.77086 3.482L5.48638 6.116L11.5453 0.25C11.7178 0.0833333 11.9271 0 12.1733 0C12.4195 0 12.6288 0.0833333 12.8012 0.25L14.0576 1.4645C14.23 1.63117 14.3162 1.8335 14.3162 2.0715Z" fill="#07875A"/>
</svg>
